<svg id="Layer_1" data-name="Layer 1" xmlns="http://www.w3.org/2000/svg" viewBox="0 0 91.16 122.88"><defs><style>.cls-1{fill:#f77d02;}.cls-1,.cls-2,.cls-3{fill-rule:evenodd;}.cls-2{fill:#ffc928;}.cls-3{fill:#fff073;}</style></defs><title>flames</title><path class="cls-1" d="M14.45,35.35c1.82,14.45,4.65,25.4,9.44,29.45C24.48,30.87,43,27.4,38.18,0,53.52,3,67.77,33.33,71.36,66.15a37.5,37.5,0,0,0,6.53-19.46c13.76,15.72,21.31,56.82-.17,69.52-12.53,7.41-38.13,7.79-51.46,5.27a27.64,27.64,0,0,1-13.5-5.36c-19.2-14.66-15.17-62.25,1.69-80.77Z"/><path class="cls-2" d="M77.73,116.2h0c-8,4.74-21.42,6.61-33.51,6.67H42.45a95.69,95.69,0,0,1-16.19-1.39,27.64,27.64,0,0,1-13.5-5.36,2.43,2.43,0,0,0-.25-.2c-2.13-10.28,1.76-24,8.49-31.29a25.49,25.49,0,0,0,4.85,13.71C28.51,75.22,39.11,57,50.5,54.94c-3,19.1,11,24.21,10.62,42.45,3.56-2.85,5.66-10.57,7-20.75,9.12,9.49,13.59,26.32,9.59,39.56Z"/><path class="cls-3" d="M65.81,120.73a115,115,0,0,1-39.55.82l-1-.13c.06-5.73,2.21-12,5.47-15.73a17.18,17.18,0,0,0,2.93,8.84c1.61-14.91,8-26.63,14.88-28-1.79,12.32,6.65,15.61,6.4,27.37,2.15-1.84,3.42-6.82,4.23-13.38,4.47,5,7.09,12.84,6.63,20.19Z"/></svg>